<svg width="12" height="14" viewBox="0 0 12 14" fill="none" xmlns="http://www.w3.org/2000/svg">
<path fill-rule="evenodd" clip-rule="evenodd" d="M6.00033 0.333313C3.05481 0.333313 0.666992 3.0017 0.666992 5.99998C0.666992 8.97476 2.36921 12.2083 5.02504 13.4496C5.64415 13.739 6.3565 13.739 6.97561 13.4496C9.63144 12.2083 11.3337 8.97476 11.3337 5.99998C11.3337 3.0017 8.94584 0.333313 6.00033 0.333313ZM6.00033 6.99998C6.7367 6.99998 7.33366 6.40303 7.33366 5.66665C7.33366 4.93027 6.7367 4.33331 6.00033 4.33331C5.26395 4.33331 4.66699 4.93027 4.66699 5.66665C4.66699 6.40303 5.26395 6.99998 6.00033 6.99998Z" fill="#8683A1"/>
</svg>
