<svg width="14" height="14" viewBox="0 0 14 14" fill="none" xmlns="http://www.w3.org/2000/svg">
<path d="M5.10178 2.60556C5.94622 1.09073 6.36843 0.333313 6.99967 0.333313C7.63092 0.333313 8.05313 1.09073 8.89757 2.60556L9.11603 2.99747C9.35599 3.42794 9.47597 3.64317 9.66305 3.78518C9.85012 3.9272 10.0831 3.97991 10.5491 4.08535L10.9733 4.18133C12.6131 4.55235 13.433 4.73786 13.6281 5.36513C13.8231 5.99241 13.2642 6.64603 12.1463 7.95326L11.8571 8.29146C11.5394 8.66294 11.3806 8.84867 11.3091 9.07846C11.2376 9.30824 11.2617 9.55605 11.3097 10.0517L11.3534 10.5029C11.5224 12.247 11.6069 13.1191 11.0962 13.5068C10.5856 13.8945 9.81789 13.541 8.28256 12.8341L7.88535 12.6512C7.44906 12.4503 7.23091 12.3499 6.99967 12.3499C6.76844 12.3499 6.55029 12.4503 6.114 12.6512L5.71679 12.8341C4.18146 13.541 3.41379 13.8945 2.90311 13.5068C2.39242 13.1191 2.47693 12.247 2.64594 10.5029L2.68966 10.0517C2.73769 9.55605 2.76171 9.30824 2.69025 9.07846C2.61879 8.84867 2.45996 8.66294 2.14229 8.29146L1.85307 7.95326C0.735174 6.64603 0.176224 5.99241 0.371288 5.36513C0.566353 4.73786 1.38625 4.55235 3.02603 4.18133L3.45027 4.08535C3.91624 3.97991 4.14923 3.9272 4.3363 3.78518C4.52338 3.64317 4.64336 3.42794 4.88332 2.99747L5.10178 2.60556Z" fill="#8683A1"/>
</svg>
